HIERARCHY
ROOT mixamorig:Hips
{
	OFFSET 0.000000 201.639420 0.000000
	CHANNELS 6 Xposition Yposition Zposition Xrotation Yrotation Zrotation
	JOINT mixamorig:Spine
	{
		OFFSET 0.006200 19.524994 -2.481800
		CHANNELS 3 Xrotation Yrotation Zrotation
		JOINT mixamorig:Spine1
		{
			OFFSET -0.000900 22.835007 -2.825400
			CHANNELS 3 Xrotation Yrotation Zrotation
			JOINT mixamorig:Spine2
			{
				OFFSET -0.020600 26.552490 -3.193300
				CHANNELS 3 Xrotation Yrotation Zrotation
				JOINT mixamorig:Neck
				{
					OFFSET -0.060000 30.701813 1.352200
					CHANNELS 3 Xrotation Yrotation Zrotation
					JOINT mixamorig:Head
					{
						OFFSET -0.087200 22.547607 3.670900
						CHANNELS 3 Xrotation Yrotation Zrotation
						JOINT mixamorig:HeadTop_End
						{
							OFFSET -0.830600 40.355194 7.893500
							CHANNELS 3 Xrotation Yrotation Zrotation
							End Site
							{
								OFFSET 0.000000 30.592346 0.000000
							}
						}
						JOINT mixamorig:RightEye
						{
							OFFSET -6.302100 18.118591 16.197100
							CHANNELS 3 Xrotation Yrotation Zrotation
							End Site
							{
								OFFSET 0.000000 30.592346 0.000000
							}
						}
						JOINT mixamorig:LeftEye
						{
							OFFSET 6.741500 18.382690 16.401899
							CHANNELS 3 Xrotation Yrotation Zrotation
							End Site
							{
								OFFSET 0.000000 30.592346 0.000000
							}
						}
					}
				}
				JOINT mixamorig:LeftShoulder
				{
					OFFSET 11.924900 18.230499 1.425400
					CHANNELS 3 Xrotation Yrotation Zrotation
					JOINT mixamorig:LeftArm
					{
						OFFSET 25.435989 -0.697632 -5.229300
						CHANNELS 3 Xrotation Yrotation Zrotation
						JOINT mixamorig:LeftForeArm
						{
							OFFSET 54.684776 0.000000 0.000000
							CHANNELS 3 Xrotation Yrotation Zrotation
							JOINT mixamorig:LeftHand
							{
								OFFSET 55.098175 0.000000 0.000000
								CHANNELS 3 Xrotation Yrotation Zrotation
								JOINT mixamorig:LeftHandMiddle1
								{
									OFFSET 23.369751 0.000000 0.000000
									CHANNELS 3 Xrotation Yrotation Zrotation
									JOINT mixamorig:LeftHandMiddle2
									{
										OFFSET 6.378677 0.000000 0.000000
										CHANNELS 3 Xrotation Yrotation Zrotation
										JOINT mixamorig:LeftHandMiddle3
										{
											OFFSET 6.148331 0.000000 0.000000
											CHANNELS 3 Xrotation Yrotation Zrotation
											JOINT mixamorig:LeftHandMiddle4
											{
												OFFSET 6.582504 0.000000 0.000000
												CHANNELS 3 Xrotation Yrotation Zrotation
												End Site
												{
													OFFSET -1.168900 6.395691 1.028606
												}
											}
										}
									}
								}
								JOINT mixamorig:LeftHandThumb1
								{
									OFFSET 7.235672 -3.848206 5.434273
									CHANNELS 3 Xrotation Yrotation Zrotation
									JOINT mixamorig:LeftHandThumb2
									{
										OFFSET 6.568451 -3.792297 3.792300
										CHANNELS 3 Xrotation Yrotation Zrotation
										JOINT mixamorig:LeftHandThumb3
										{
											OFFSET 6.063080 -3.500519 3.500518
											CHANNELS 3 Xrotation Yrotation Zrotation
											JOINT mixamorig:LeftHandThumb4
											{
												OFFSET 4.793182 -2.767334 2.767349
												CHANNELS 3 Xrotation Yrotation Zrotation
												End Site
												{
													OFFSET 0.101639 6.054260 1.275483
												}
											}
										}
									}
								}
								JOINT mixamorig:LeftHandIndex1
								{
									OFFSET 23.101074 -0.309540 4.992809
									CHANNELS 3 Xrotation Yrotation Zrotation
									JOINT mixamorig:LeftHandIndex2
									{
										OFFSET 6.226883 0.000000 0.000000
										CHANNELS 3 Xrotation Yrotation Zrotation
										JOINT mixamorig:LeftHandIndex3
										{
											OFFSET 6.094330 0.000000 0.000000
											CHANNELS 3 Xrotation Yrotation Zrotation
											JOINT mixamorig:LeftHandIndex4
											{
												OFFSET 5.482605 0.000000 0.000000
												CHANNELS 3 Xrotation Yrotation Zrotation
												End Site
												{
													OFFSET -1.427902 5.233032 0.797164
												}
											}
										}
									}
								}
								JOINT mixamorig:LeftHandRing1
								{
									OFFSET 22.299240 0.021149 -3.964172
									CHANNELS 3 Xrotation Yrotation Zrotation
									JOINT mixamorig:LeftHandRing2
									{
										OFFSET 6.321869 0.000000 0.000000
										CHANNELS 3 Xrotation Yrotation Zrotation
										JOINT mixamorig:LeftHandRing3
										{
											OFFSET 5.899796 0.000000 0.000000
											CHANNELS 3 Xrotation Yrotation Zrotation
											JOINT mixamorig:LeftHandRing4
											{
												OFFSET 6.517899 0.000000 0.000000
												CHANNELS 3 Xrotation Yrotation Zrotation
												End Site
												{
													OFFSET -1.637299 6.232208 0.980890
												}
											}
										}
									}
								}
								JOINT mixamorig:LeftHandPinky1
								{
									OFFSET 20.463791 -0.302338 -8.562233
									CHANNELS 3 Xrotation Yrotation Zrotation
									JOINT mixamorig:LeftHandPinky2
									{
										OFFSET 6.908646 0.000000 0.000000
										CHANNELS 3 Xrotation Yrotation Zrotation
										JOINT mixamorig:LeftHandPinky3
										{
											OFFSET 4.622849 0.000000 0.000000
											CHANNELS 3 Xrotation Yrotation Zrotation
											JOINT mixamorig:LeftHandPinky4
											{
												OFFSET 5.216080 0.000000 0.000000
												CHANNELS 3 Xrotation Yrotation Zrotation
												End Site
												{
													OFFSET -0.606308 5.116241 0.814926
												}
											}
										}
									}
								}
							}
						}
					}
				}
				JOINT mixamorig:RightShoulder
				{
					OFFSET -12.001300 18.284088 1.348900
					CHANNELS 3 Xrotation Yrotation Zrotation
					JOINT mixamorig:RightArm
					{
						OFFSET -25.308500 -0.751312 -5.164599
						CHANNELS 3 Xrotation Yrotation Zrotation
						JOINT mixamorig:RightForeArm
						{
							OFFSET -54.684429 0.000000 0.000000
							CHANNELS 3 Xrotation Yrotation Zrotation
							JOINT mixamorig:RightHand
							{
								OFFSET -55.150291 0.000000 0.000000
								CHANNELS 3 Xrotation Yrotation Zrotation
								JOINT mixamorig:RightHandMiddle1
								{
									OFFSET -23.317566 0.000000 0.000000
									CHANNELS 3 Xrotation Yrotation Zrotation
									JOINT mixamorig:RightHandMiddle2
									{
										OFFSET -6.378403 0.000000 0.000000
										CHANNELS 3 Xrotation Yrotation Zrotation
										JOINT mixamorig:RightHandMiddle3
										{
											OFFSET -6.148193 0.000000 0.000000
											CHANNELS 3 Xrotation Yrotation Zrotation
											JOINT mixamorig:RightHandMiddle4
											{
												OFFSET -6.583389 0.000000 0.000000
												CHANNELS 3 Xrotation Yrotation Zrotation
												End Site
												{
													OFFSET 1.171692 6.395905 1.029786
												}
											}
										}
									}
								}
								JOINT mixamorig:RightHandThumb1
								{
									OFFSET -7.190521 -3.860474 5.435846
									CHANNELS 3 Xrotation Yrotation Zrotation
									JOINT mixamorig:RightHandThumb2
									{
										OFFSET -6.567429 -3.791718 3.791708
										CHANNELS 3 Xrotation Yrotation Zrotation
										JOINT mixamorig:RightHandThumb3
										{
											OFFSET -6.062469 -3.500153 3.500166
											CHANNELS 3 Xrotation Yrotation Zrotation
											JOINT mixamorig:RightHandThumb4
											{
												OFFSET -4.792618 -2.767029 2.767022
												CHANNELS 3 Xrotation Yrotation Zrotation
												End Site
												{
													OFFSET -0.100327 6.053253 1.276754
												}
											}
										}
									}
								}
								JOINT mixamorig:RightHandIndex1
								{
									OFFSET -23.048981 -0.310791 4.992554
									CHANNELS 3 Xrotation Yrotation Zrotation
									JOINT mixamorig:RightHandIndex2
									{
										OFFSET -6.227539 0.000000 0.000000
										CHANNELS 3 Xrotation Yrotation Zrotation
										JOINT mixamorig:RightHandIndex3
										{
											OFFSET -6.095047 0.000000 0.000000
											CHANNELS 3 Xrotation Yrotation Zrotation
											JOINT mixamorig:RightHandIndex4
											{
												OFFSET -5.484772 0.000000 0.000000
												CHANNELS 3 Xrotation Yrotation Zrotation
												End Site
												{
													OFFSET 1.420593 5.237305 0.797056
												}
											}
										}
									}
								}
								JOINT mixamorig:RightHandRing1
								{
									OFFSET -22.246323 0.020569 -3.963762
									CHANNELS 3 Xrotation Yrotation Zrotation
									JOINT mixamorig:RightHandRing2
									{
										OFFSET -6.322128 0.000000 0.000000
										CHANNELS 3 Xrotation Yrotation Zrotation
										JOINT mixamorig:RightHandRing3
										{
											OFFSET -5.900024 0.000000 0.000000
											CHANNELS 3 Xrotation Yrotation Zrotation
											JOINT mixamorig:RightHandRing4
											{
												OFFSET -6.518356 0.000000 0.000000
												CHANNELS 3 Xrotation Yrotation Zrotation
												End Site
												{
													OFFSET 1.636398 6.232697 0.982186
												}
											}
										}
									}
								}
								JOINT mixamorig:RightHandPinky1
								{
									OFFSET -20.411011 -0.303314 -8.561701
									CHANNELS 3 Xrotation Yrotation Zrotation
									JOINT mixamorig:RightHandPinky2
									{
										OFFSET -6.907349 0.000000 0.000000
										CHANNELS 3 Xrotation Yrotation Zrotation
										JOINT mixamorig:RightHandPinky3
										{
											OFFSET -4.623840 0.000000 0.000000
											CHANNELS 3 Xrotation Yrotation Zrotation
											JOINT mixamorig:RightHandPinky4
											{
												OFFSET -5.218353 0.000000 0.000000
												CHANNELS 3 Xrotation Yrotation Zrotation
												End Site
												{
													OFFSET 0.602097 5.118835 0.816273
												}
											}
										}
									}
								}
							}
						}
					}
				}
			}
		}
	}
	JOINT mixamorig:LeftUpLeg
	{
		OFFSET 18.168400 -13.561905 -0.039000
		CHANNELS 3 Xrotation Yrotation Zrotation
		JOINT mixamorig:LeftLeg
		{
			OFFSET 0.577358 -80.825211 -3.695000
			CHANNELS 3 Xrotation Yrotation Zrotation
			JOINT mixamorig:LeftFoot
			{
				OFFSET -0.577356 -83.370262 -6.520700
				CHANNELS 3 Xrotation Yrotation Zrotation
				JOINT mixamorig:LeftToeBase
				{
					OFFSET 0.750401 -20.798306 25.135401
					CHANNELS 3 Xrotation Yrotation Zrotation
					JOINT mixamorig:LeftToe_End
					{
						OFFSET -0.000500 0.001200 19.917799
						CHANNELS 3 Xrotation Yrotation Zrotation
						End Site
						{
							OFFSET 0.000000 19.917805 0.000000
						}
					}
				}
			}
		}
	}
	JOINT mixamorig:RightUpLeg
	{
		OFFSET -18.162500 -13.585098 -0.041000
		CHANNELS 3 Xrotation Yrotation Zrotation
		JOINT mixamorig:RightLeg
		{
			OFFSET -0.595024 -80.945297 -3.631900
			CHANNELS 3 Xrotation Yrotation Zrotation
			JOINT mixamorig:RightFoot
			{
				OFFSET 0.595024 -83.218193 -6.561200
				CHANNELS 3 Xrotation Yrotation Zrotation
				JOINT mixamorig:RightToeBase
				{
					OFFSET -0.753601 -20.807106 25.115000
					CHANNELS 3 Xrotation Yrotation Zrotation
					JOINT mixamorig:RightToe_End
					{
						OFFSET 0.000299 0.001700 19.918200
						CHANNELS 3 Xrotation Yrotation Zrotation
						End Site
						{
							OFFSET 0.000000 19.918203 0.000000
						}
					}
				}
			}
		}
	}
}
MOTION
Frames: 4
Frame Time: 0.033333
0.389875 197.368790 -0.062783 -0.893084 1.580404 -4.939435 1.289229 -1.209696 2.597184 0.728746 0.264195 5.944688 0.710791 0.781493 5.851995 1.045308 -0.304693 -2.160951 1.584882 0.544207 -8.137579 -0.000000 0.000000 -0.000000 -0.000000 0.000000 -0.000000 -0.000000 0.000000 -0.000000 3.582360 -13.764044 -5.044457 4.032803 3.514280 -83.678328 -0.000001 -14.506784 0.000010 -27.592479 3.698869 -9.416234 0.912579 8.769259 -15.831743 0.918099 3.989583 -33.382130 0.170902 1.490197 -12.277934 -0.000001 -0.000001 0.000001 18.491274 -0.461400 10.916076 1.284012 32.757611 -3.088949 2.117138 9.311155 -0.358625 0.000001 -0.000000 0.000000 0.339561 4.671349 -7.844275 0.387038 2.823574 -20.566229 0.034627 0.816833 -10.169818 -0.000002 0.000001 -0.000002 2.555821 11.673034 -26.909187 1.710655 3.886785 -40.215474 0.544860 1.835071 -19.344148 0.000001 0.000001 -0.000003 5.576079 16.029165 -36.940624 1.378689 4.077641 -45.645628 0.486583 2.853395 -20.524727 0.000000 -0.000000 -0.000001 4.508131 3.324372 5.471574 -1.219635 0.655879 67.345426 -0.000004 17.736780 0.000020 -11.193157 -9.123236 10.139278 0.910719 -8.763972 15.819391 0.919890 -3.992421 33.415686 0.216459 -1.688792 15.897689 0.000001 0.000000 0.000001 18.502178 0.461557 -10.920250 1.284655 -32.755320 3.089509 1.982233 -8.434752 1.135747 0.000000 -0.000001 0.000000 0.342035 -4.680463 7.843779 0.387031 -2.823569 20.566226 -0.193126 -0.216348 13.843935 0.000001 -0.000000 0.000001 2.552420 -11.667052 26.900995 1.710779 -3.886906 40.217223 -0.157980 0.035537 17.812870 0.000000 0.000000 0.000000 5.573391 -16.028161 36.940515 1.378587 -4.077520 45.644085 -0.727743 -0.247411 22.121451 0.000001 -0.000000 0.000001 -21.762190 10.167110 16.261072 23.290807 9.557611 2.420569 -0.304660 3.245064 -9.014135 -0.441962 0.000002 0.000000 0.000000 0.000000 0.000000 -1.843931 -5.000090 10.401153 9.676620 -5.097894 3.266265 -6.902987 0.888642 -8.323018 -0.514649 0.000002 0.000003 -0.000000 0.000000 0.000000 
0.412643 197.339294 -0.090884 -1.040163 1.595405 -4.965250 1.308504 -1.150508 2.618886 0.760943 0.379982 5.964482 0.743261 0.897156 5.872066 1.062487 -0.371942 -2.155059 1.809416 0.516728 -8.216052 -0.000000 0.000000 -0.000000 -0.000000 0.000000 -0.000000 -0.000000 0.000000 -0.000000 3.525047 -13.876497 -5.184369 4.325001 4.143524 -83.372567 -0.000000 -15.205886 -0.000031 -26.844624 4.027905 -9.351947 0.800115 8.482513 -14.666793 0.918099 3.989590 -33.382160 0.170903 1.490193 -12.277935 -0.000000 -0.000001 0.000003 18.491264 -0.461405 10.916083 1.284014 32.757618 -3.088946 2.117137 9.311155 -0.358626 0.000002 0.000000 0.000001 0.644005 4.290931 -6.741783 0.387028 2.823569 -20.566212 0.034629 0.816838 -10.169824 -0.000001 0.000000 -0.000001 2.121287 11.157928 -24.118071 1.709706 3.885877 -40.202295 0.544862 1.835070 -19.344153 -0.000000 -0.000000 -0.000001 4.713887 15.624544 -32.590248 1.372409 4.070363 -45.549903 0.486078 2.852255 -20.512328 -0.000001 0.000000 0.000001 4.450907 3.680444 6.087126 -0.910692 -0.615804 66.730395 -0.000005 18.579364 0.000022 -8.364100 -11.731728 7.549639 0.910720 -8.763973 15.819411 0.919890 -3.992424 33.415690 0.216461 -1.688794 15.897690 0.000002 -0.000000 0.000002 18.499151 0.461542 -10.888918 1.304560 -32.751758 3.139795 1.982243 -8.434752 1.135765 0.000003 0.000004 0.000002 0.342034 -4.680462 7.843783 0.387032 -2.823570 20.566215 -0.193127 -0.216347 13.843945 0.000001 -0.000000 -0.000001 2.552419 -11.667048 26.900975 1.710780 -3.886907 40.217230 -0.157980 0.035536 17.812867 -0.000001 -0.000000 0.000002 5.573395 -16.028164 36.940508 1.378587 -4.077520 45.644092 -0.727744 -0.247408 22.121451 -0.000002 0.000000 -0.000001 -21.705054 10.093211 16.235322 23.452143 9.643356 2.535551 -0.335174 3.248966 -9.058262 -0.527485 -0.000001 -0.000001 -0.000000 0.000000 -0.000000 -1.770084 -5.010765 10.448195 9.825014 -4.993330 3.219606 -6.982224 0.782968 -8.305910 -0.514649 -0.000000 0.000001 -0.000000 -0.000001 0.000000 
0.486511 197.309433 -0.089186 -1.168808 1.698412 -4.973363 1.318220 -1.098238 2.621501 0.775264 0.479425 5.959476 0.758040 0.996559 5.867296 1.119014 -0.418124 -2.140871 2.216578 0.606796 -8.265387 -0.000000 -0.000000 0.000000 -0.000000 -0.000000 0.000000 -0.000000 -0.000000 0.000000 3.453917 -14.086668 -5.341808 5.385633 5.229497 -83.114393 0.000004 -17.031005 0.000010 -25.748355 4.522725 -9.055018 0.680121 8.140256 -13.297911 0.918091 3.989584 -33.382130 0.170902 1.490197 -12.277949 0.000002 0.000001 0.000001 18.491279 -0.461405 10.916067 1.284013 32.757611 -3.088947 2.117137 9.311158 -0.358624 -0.000001 0.000001 0.000000 1.018396 3.858554 -5.439579 0.387033 2.823575 -20.566220 0.034629 0.816838 -10.169816 -0.000001 0.000001 -0.000002 1.662457 10.507188 -20.849219 1.708589 3.884788 -40.186682 0.544862 1.835073 -19.344173 -0.000001 -0.000000 0.000002 3.755599 15.014482 -27.499914 1.365037 4.061791 -45.437318 0.485474 2.850917 -20.497739 -0.000001 0.000000 0.000000 4.375450 4.024451 6.469329 -0.586861 -1.967865 66.349072 -0.000001 19.518529 -0.000003 -6.242197 -13.991263 5.229993 0.910721 -8.763972 15.819413 0.919889 -3.992424 33.415693 0.216459 -1.688793 15.897687 0.000002 0.000000 -0.000002 18.489880 0.465533 -10.809974 1.364677 -32.734409 3.288931 1.982232 -8.434770 1.135736 0.000002 -0.000001 0.000002 0.342035 -4.680463 7.843778 0.387032 -2.823569 20.566244 -0.193125 -0.216348 13.843947 0.000001 0.000001 -0.000003 2.552419 -11.667053 26.900973 1.710780 -3.886904 40.217240 -0.157981 0.035536 17.812870 -0.000001 0.000000 -0.000001 5.573392 -16.028156 36.940518 1.378583 -4.077522 45.644085 -0.727742 -0.247410 22.121458 0.000000 0.000000 0.000001 -21.698165 10.049758 16.186623 23.659632 9.596105 2.612723 -0.384762 3.251258 -9.058051 -0.594330 -0.000001 -0.000001 0.000000 0.000002 0.000000 -1.741525 -5.025466 10.463159 10.038053 -4.885907 3.169832 -7.111455 0.592365 -8.269252 -0.514651 0.000001 -0.000001 -0.000000 -0.000001 0.000000 
0.594528 197.283051 -0.087358 -1.306713 1.906753 -4.946659 1.330859 -1.053515 2.609208 0.796256 0.565142 5.920265 0.779749 1.082290 5.828304 1.197845 -0.444293 -2.146681 2.870199 0.777742 -8.299193 0.000001 0.000000 0.000000 0.000001 0.000000 0.000000 0.000001 0.000000 0.000000 3.378139 -14.334542 -5.459151 6.631002 6.455333 -82.903696 0.000007 -18.514351 0.000016 -24.533256 4.204000 -8.998933 0.567612 7.772076 -11.849239 0.918100 3.989587 -33.382153 0.170899 1.490203 -12.277952 -0.000000 0.000000 -0.000002 18.491272 -0.461409 10.916079 1.284015 32.757618 -3.088947 2.117138 9.311156 -0.358624 0.000002 -0.000001 0.000000 1.433706 3.419108 -4.053664 0.387031 2.823573 -20.566210 0.034629 0.816835 -10.169812 -0.000000 -0.000000 0.000000 1.242493 9.769399 -17.403008 1.707416 3.883647 -40.170221 0.544858 1.835071 -19.344161 -0.000001 0.000001 0.000001 2.825215 14.217762 -22.145860 1.357239 4.052686 -45.317988 0.484840 2.849497 -20.482252 0.000000 -0.000001 0.000000 4.294345 4.327474 6.689845 -0.708216 -3.482314 66.230343 -0.000007 20.109791 0.000032 -5.485054 -15.747752 3.402870 0.910718 -8.763970 15.819386 0.919887 -3.992426 33.415679 0.216461 -1.688792 15.897699 0.000001 -0.000001 0.000001 18.479912 0.477383 -10.681415 1.462260 -32.705644 3.531258 1.964234 -8.439252 1.133998 0.000002 -0.000005 0.000001 0.342037 -4.680462 7.843772 0.387032 -2.823570 20.566222 -0.193125 -0.216346 13.843945 0.000001 0.000000 -0.000004 2.552420 -11.667051 26.900968 1.710781 -3.886904 40.217240 -0.157975 0.035535 17.812882 0.000000 0.000000 -0.000001 5.573391 -16.028164 36.940491 1.378582 -4.077523 45.644078 -0.727738 -0.247406 22.121446 -0.000002 -0.000001 0.000001 -21.689430 10.015640 16.095739 23.861773 9.421549 2.660557 -0.423959 3.255720 -9.004734 -0.679436 -0.000008 0.000003 0.000000 -0.000001 -0.000000 -1.737622 -5.037050 10.456220 10.306253 -4.773072 3.095352 -7.281054 0.290364 -8.219137 -0.514650 0.000004 -0.000001 -0.000000 -0.000001 -0.000000 
